Enemy of the State (1998)
=========================

Enemy Of The State (1998) DVDRip-XviD(Dolby Digital 5.1 CH)={DaBas}=™

======================================================================


General
=======
Format                           : AVI
Format/Info                      : Audio Video Interleave
File size                        : 1.13 GiB
Duration                         : 2h 12mn
Overall bit rate                 : 1 226 Kbps

Video
=====
Format                           : MPEG-4 Visual
Format profile                   : Streaming Video@L1
Format settings, BVOP            : Yes
Format settings, QPel            : No
Format settings, GMC             : No warppoints
Format settings, Matrix          : Default
Muxing mode                      : Packed bitstream
Codec ID                         : XVID
Codec ID/Hint                    : XviD
Duration                         : 2h 12mn
Bit rate                         : 835 Kbps
Width                            : 720 pixels
Height                           : 304 pixels
Display aspect ratio             : 2.35
Frame rate                       : 23.976 fps
Resolution                       : 24 bits
Colorimetry                      : 4:2:0
Scan type                        : Progressive
Bits/(Pixel*Frame)               : 0.159
Stream size                      : 789 MiB (68%)
Writing library                  : XviD 50

Audio
=====
Format                           : AC-3
Format/Info                      : Audio Coding 3
Codec ID                         : 2000
Duration                         : 2h 12mn
Bit rate mode                    : Constant
Bit rate                         : 384 Kbps
Channel(s)                       : 6 channels
Channel positions                : Front: L C R, Surround: L R, LFE
Sampling rate                    : 48.0 KHz
Stream size                      : 363 MiB (31%)
Alignment                        : Split accross interleaves
Interleave, duration             : 83 ms (2.00 video frames)
Interleave, preload duration     : 500 ms
Language                         : English


For Screen Shots visit at :-
Storyline :-
===================================================================================

Robert Clayton Dean is a successful labor lawyer based in Washington DC. He has a beautiful wife and adorable son with a nice house located in Georgetown. But things take a turn for the surreal, when a chance encounter with an old friend leaves him evidence of a politically-motivated murder. On the run from a treacherous NSA official and his men, he comes into contact with a former government operative and surveillance expert, who is his only way out.

===================================================================================

Enjoy and Seed after downloading.....

={DaBaS}™